<svg width="150" height="79" viewBox="0 0 317 79" fill="none" xmlns="http://www.w3.org/2000/svg">
<path d="M0.896 78V76.752C3.776 75.888 4.736 73.68 4.736 65.808V22.992C4.736 15.12 3.776 12.912 0.896 12.048V10.8H23.36C38.144 10.8 44.192 15.696 44.192 23.472C44.192 30 39.968 35.952 29.024 37.968C44.672 38.736 51.584 46.512 51.68 55.92C51.872 66.672 43.808 78 20.48 78H0.896ZM12.608 68.208C12.608 75.12 13.472 76.56 17.6 76.56H21.344C36.992 76.56 42.944 68.976 42.944 58.32C42.944 47.28 36.8 39.216 22.4 39.216H12.608V68.208ZM12.608 37.776H21.536C31.04 37.776 35.456 32.208 35.456 25.2C35.456 17.232 29.792 12.24 19.904 12.24H12.608V37.776ZM80.9893 78.96C70.4293 78.96 58.2373 71.28 58.2373 55.44C58.2373 39.792 70.0453 29.328 83.4853 29.328C95.5813 29.328 102.589 37.2 102.877 46.32H65.3413C65.1493 47.76 65.0533 49.2 65.0533 50.736C65.0533 63.888 73.2133 72.912 85.6933 72.912C93.0853 72.912 98.3653 69.552 102.781 64.56L103.645 65.424C98.7493 72.144 91.2613 78.96 80.9893 78.96ZM65.6293 45.072H95.1973C94.2373 38.64 89.0533 31.056 80.3173 31.056C72.1573 30.96 67.1653 37.008 65.6293 45.072ZM145.63 78C143.71 78 142.75 76.944 142.75 75.12V57.84C139.774 69.648 131.71 78.96 122.206 78.96C115.102 78.96 108.766 74.64 108.766 66.384C108.766 56.4 118.846 52.656 130.27 49.488L142.75 46.128C142.27 36.816 137.47 32.496 129.31 32.496C123.55 32.496 117.982 35.184 113.182 41.04L112.318 40.272C117.79 33.456 124.798 29.328 133.15 29.328C144.766 29.328 150.142 35.76 150.142 46.608V65.808C150.142 73.68 151.006 75.888 153.982 76.752V78H145.63ZM115.966 63.696C115.966 69.936 120.286 73.296 125.758 73.296C136.03 73.296 142.654 60.336 142.75 50.256V47.568V47.376L130.654 50.64C123.55 52.656 115.87 55.824 115.966 63.696ZM177.241 78.96C167.161 78.96 162.553 72.528 162.553 61.488V43.728C162.553 37.008 161.305 36.048 158.713 34.896V33.84L169.177 29.232L170.041 29.904V59.76C170.041 70.704 173.113 75.6 180.793 75.6C186.457 75.6 191.641 72.048 195.961 67.44V43.728C195.961 37.008 194.713 36.048 192.121 34.896V33.84L202.585 29.232L203.449 29.904V65.808C203.449 73.68 204.312 75.888 207.289 76.752V78H199.129C197.017 78 195.961 76.944 195.961 74.16V69.264C191.065 74.352 184.441 78.96 177.241 78.96ZM228.832 78.96C222.784 78.96 219.136 75.216 219.136 65.232V31.344H212.992V30L225.28 18.192H226.624V30H241.216L240.736 31.344H226.624V65.232C226.624 71.76 229.312 74.256 233.44 74.256C236.128 74.256 239.488 73.008 242.656 69.264L243.52 70.128C239.392 74.832 234.496 78.96 228.832 78.96ZM246.76 78V76.752C249.736 75.888 250.6 73.68 250.6 65.808V43.728C250.6 37.008 249.448 36.048 246.76 34.896V33.84L257.32 29.232L258.088 29.904V65.808C258.088 73.68 259.048 75.888 261.928 76.752V78H246.76ZM248.488 18.096C248.488 15.024 250.792 12.72 253.768 12.72C256.84 12.72 259.048 15.024 259.048 18.096C259.048 20.976 256.744 23.376 253.768 23.376C250.792 23.376 248.488 20.976 248.488 18.096ZM268.802 78V76.752C271.778 75.888 272.642 73.68 272.642 65.808V14.928C272.642 8.20799 271.394 7.248 268.802 6.096V5.04L279.266 0.431997L280.13 1.10399V57.168L296.834 41.136C303.074 34.992 303.746 31.632 301.634 30.672V30H312.962V31.248C310.082 32.112 306.914 33.072 301.25 38.448L294.338 45.168L305.57 65.424C309.314 72.144 312.29 76.56 316.61 76.848V78H310.37C305.666 78 302.498 75.12 297.794 66.48L289.058 50.256L280.13 58.896V65.808C280.13 73.68 280.994 75.888 283.97 76.752V78H268.802Z" fill="white"/>
</svg>
